Laura Pausini - Benvenuto

Video: Windows Media Video 9 640x480 12.00fps 1200kbps [Raw Video 1]
Audio: Windows Media Audio 44100Hz stereo 64kbps [Raw Audio 0]


General
Complete name                  : D:\work\sharing\_music\Benvenuto - Laura Pausini.mp3
Format                         : Windows Media
File size                      : 6.08 MiB
Duration                       : 3mn 38s
Overall bit rate mode          : Constant
Overall bit rate               : 233 Kbps
Maximum Overall bit rate       : 1 276 Kbps
Movie name                     : Laura Pausini
Movie name/More                : Benvenuto - Laura Pausini
Album                          : Laura Pausini
Performer                      : Benvenuto
Encoded date                   : UTC 2011-12-03 03:13:58.562
Comment                        : Benvenuto Laura Pausini
WM/OriginalLyricist            : Benvenuto - Laura Pausini
WM/Category                    : Benvenuto - Laura Pausini
WM/OriginalArtist              : Benvenuto

Video
ID                             : 2
Format                         : VC-1
Format profile                 : MP@ML
Codec ID                       : WMV3
Codec ID/Info                  : Windows Media Video 9
Codec ID/Hint                  : WMV3
Description of the codec       : Windows Media Video 9 - Professional
Duration                       : 3mn 39s
Bit rate mode                  : Constant
Bit rate                       : 1 200 Kbps
Width                          : 640 pixels
Height                         : 480 pixels
Display aspect ratio           : 4:3
Frame rate                     : 12.000 fps
Bit depth                      : 8 bits
Scan type                      : Progressive
Compression mode               : Lossy
Bits/(Pixel*Frame)             : 0.326
Stream size                    : 31.3 MiB

Audio
ID                             : 1
Format                         : WMA
Format version                 : Version 2
Codec ID                       : 161
Codec ID/Info                  : Windows Media Audio
Description of the codec       : Windows Media Audio 9.2 -  64 kbps, 44 kHz, stereo (A/V) 1-pass CBR
Duration                       : 3mn 38s
Bit rate mode                  : Constant
Bit rate                       : 64.0 Kbps
Channel(s)                     : 2 channels
Sampling rate                  : 44.1 KHz
Bit depth                      : 16 bits
Stream size                    : 1.67 MiB (28%)
